<?xml version="1.0" encoding="utf-8"?>
<!-- Generator: Adobe Illustrator 24.1.1, SVG Export Plug-In . SVG Version: 6.00 Build 0)  -->
<svg version="1.1" id="Layer_1" xmlns="http://www.w3.org/2000/svg" xmlns:xlink="http://www.w3.org/1999/xlink" x="0px" y="0px"
	 viewBox="0 0 512 512" enable-background="new 0 0 512 512" xml:space="preserve">
<g>
	<g>
		<path d="M259.141,475.129C132.458,475.11,29.777,372.397,29.796,245.714C29.805,184.9,53.965,126.578,96.963,83.57
			C187.841-4.689,333.06-2.566,421.32,88.312c86.441,89.005,86.441,230.611,0,319.616
			C378.404,451.087,320.006,475.285,259.141,475.129z M259.141,34.29c-116.598,0-211.459,94.861-211.459,211.459
			s94.861,211.459,211.459,211.459s211.459-94.861,211.459-211.459S375.74,34.29,259.141,34.29z"/>
		<path d="M268.101,96.302v288.894h-17.92V96.302"/>
		<path d="M119.694,236.789h278.894v17.92H119.694"/>
	</g>
</g>
</svg>
