<?xml version="1.0" encoding="utf-8"?>
<!-- Generator: Adobe Illustrator 24.1.1, SVG Export Plug-In . SVG Version: 6.00 Build 0)  -->
<svg version="1.1" id="Layer_1" xmlns="http://www.w3.org/2000/svg" xmlns:xlink="http://www.w3.org/1999/xlink" x="0px" y="0px"
	 viewBox="0 0 24 24" enable-background="new 0 0 24 24" xml:space="preserve">
<g>
	<path fill="none" d="M0,0h24v24H0V0z"/>
	<path d="M3.548,3.372h16.904c0.594,0,1.08,0.486,1.08,1.08v15.461c0,0.276-0.226,0.502-0.502,0.502h-5.933
		c0-0.675-0.123-0.82-0.226-1.487h5.197V4.809H3.932v3.18c-0.667-0.103-0.65-0.201-1.326-0.201V4.314
		C2.606,3.796,3.03,3.372,3.548,3.372z M13.372,20.309h-1.766c0-4.805-4.195-9.065-9-9.065V9.543
		C8.733,9.543,13.372,14.182,13.372,20.309z M9.245,20.351l-1.787-0.043c0-2.578-2.274-4.904-4.851-4.904v-1.828
		C6.505,13.577,9.245,16.452,9.245,20.351z M4.94,19.945H2.915v-2.026C4.586,17.919,4.94,18.274,4.94,19.945z"/>
</g>
</svg>
