<svg xmlns="http://www.w3.org/2000/svg" enable-background="new 0 0 512 512" viewBox="0 0 512 512"><path d="M74.981,263.466c-5.077-5.077-5.077-13.308,0-18.385c5.076-5.077,13.307-5.076,18.385,0l149.634,149.634V13.002
	c0-7.18,5.82-13,13-13s13,5.82,13,13v381.715l149.635-149.635c5.076-5.077,13.309-5.077,18.385,0c5.077,5.077,5.077,13.308,0,18.385
	L265.193,435.293c-2.438,2.438-5.744,3.808-9.192,3.808s-6.755-1.37-9.192-3.808L74.981,263.466z M499,485.998H13
	c-7.18,0-13,5.82-13,13s5.82,13,13,13h486c7.18,0,13-5.82,13-13S506.18,485.998,499,485.998z"/></svg>