<svg xmlns="http://www.w3.org/2000/svg" enable-background="new 0 0 32 32" viewBox="0 0 32 32"><path d="M16 26c.2559 0 .5117-.0977.707-.293l9.6464-9.6464c.1953-.1953.1953-.5118 0-.7071l-.707-.707c-.1953-.1953-.5118-.1953-.7071 0L17 22.5859V2.5C17 2.2239 16.7761 2 16.5 2h-1C15.2239 2 15 2.2239 15 2.5v20.0859l-7.9394-7.9394c-.1953-.1953-.5118-.1953-.7071 0l-.707.707c-.1953.1953-.1953.5118 0 .7071l9.6464 9.6464C15.4883 25.9023 15.7441 26 16 26zM6.5 30h19c.2761 0 .5-.2239.5-.5v-1c0-.2761-.2239-.5-.5-.5h-19C6.2239 28 6 28.2239 6 28.5v1C6 29.7761 6.2239 30 6.5 30z"/></svg>