<?xml version="1.0" encoding="utf-8"?>
<!-- Generator: Adobe Illustrator 24.1.1, SVG Export Plug-In . SVG Version: 6.00 Build 0)  -->
<svg version="1.1" id="Layer_1" xmlns="http://www.w3.org/2000/svg" xmlns:xlink="http://www.w3.org/1999/xlink" x="0px" y="0px"
	 viewBox="0 0 24 24" enable-background="new 0 0 24 24" xml:space="preserve">
<path d="M14.845,3.623h0.005 M14.845,3.623l-2.108,5.059c-0.224,0.538-0.015,1.16,0.49,1.452l2.772,1.607
	c0.672,0.389,0.78,1.315,0.216,1.849l-3.661,3.467c-0.621,0.588-1.603-0.09-1.274-0.879l0.673-1.614
	c0.224-0.538,0.015-1.16-0.49-1.452L8.69,11.503c-0.672-0.39-0.78-1.315-0.216-1.849L14.845,3.623 M14.845,1.623
	c-0.513,0.002-1.006,0.199-1.379,0.551L5.969,9.269c-0.458,0.434-0.684,1.059-0.61,1.686c0.072,0.626,0.437,1.182,0.982,1.498
	l2.601,1.509c0.504,0.293,0.714,0.914,0.489,1.452l-1.375,3.3c-0.284,0.681-0.27,1.49,0.168,2.084
	c0.396,0.537,1.001,0.826,1.621,0.827c0.498,0,0.993-0.186,1.375-0.548l7.5-7.103c0.458-0.434,0.685-1.058,0.61-1.685
	c-0.073-0.626-0.437-1.181-0.982-1.498l-2.6-1.507c-0.505-0.293-0.714-0.914-0.49-1.452l1.397-3.352
	c0.473-0.998,0.048-2.191-0.95-2.664C15.435,1.688,15.142,1.623,14.845,1.623z"/>
</svg>
