<?xml version="1.0" ?><svg height="48px" version="1.1" viewBox="0 0 48 48" width="48px" xmlns="http://www.w3.org/2000/svg" xmlns:xlink="http://www.w3.org/1999/xlink"><title/><desc/><g fill="none" fill-rule="evenodd" id="Page-1" stroke="none" stroke-width="1"><g id="Artboard-Copy" transform="translate(-287.000000, -69.000000)"><path d="M299,93.999 L295.404941,93.999 C295.140668,93.999 294.88714,93.8943899 294.699763,93.708031 C294.308176,93.3185723 294.306451,92.6854097 294.69591,92.2938227 L310.578094,76.3248456 C310.583279,76.3196324 310.588521,76.3144765 310.59382,76.3093788 C310.991821,75.926477 311.624867,75.938717 312.007769,76.3367178 L327.370933,92.3056948 C327.550169,92.4919984 327.650289,92.7404764 327.650289,92.999 C327.650289,93.5512847 327.202574,93.999 326.650289,93.999 L323,93.999 L322.94055,107.004571 C322.938034,107.555066 322.491061,108 321.940561,108 L315,108 L315,99.093 C315,98.49 314.496,97.999 313.875,97.999 L308.125,97.999 C307.504,97.999 307,98.49 307,99.093 L307,108 L300,108 C299.447715,108 299,107.552285 299,107 L299,93.999 Z" fill="#000000" id="home"/><g id="slices" transform="translate(47.000000, 9.000000)"/></g></g></svg>