<?xml version="1.0" encoding="utf-8"?>
<!-- Generator: Adobe Illustrator 24.1.1, SVG Export Plug-In . SVG Version: 6.00 Build 0)  -->
<svg version="1.1" id="Layer_1" xmlns="http://www.w3.org/2000/svg" xmlns:xlink="http://www.w3.org/1999/xlink" x="0px" y="0px"
	 viewBox="0 0 700 700" enable-background="new 0 0 700 700" xml:space="preserve">
<g>
	<path d="M408.56,588.249c0.767,0.085,2.303-0.019,5.261-0.019h162.61c0.357,0,0.691,0.008,1.002,0.021h4.234
		c-0.014-0.267-0.029-0.809-0.029-1.228l1-311.85c-0.043-7.033-0.085-14.066-0.128-21.099l0,0c-4.74-4.105-9.48-8.21-14.22-12.315
		l-182.48-173.8c-9.391-10.164-18.782-20.327-28.173-30.491c-11.816,10.164-23.632,20.327-35.448,30.491l-182.48,173.8
		c-4.719,4.626-9.438,9.253-14.157,13.879c-0.079,6.51-0.157,13.021-0.236,19.531v301.85c0,6.199,5.023,11.207,11.207,11.207h157.61
		c4.502,0,5.214,0.515,5.262-1.571c0.019-0.811-0.055-1.953-0.055-3.636v-130.25c0.055-5.492,0.042-11.076-0.043-16.748
		c-0.033-2.189-0.077-4.365-0.131-6.526c1.791-0.037,3.583-0.074,5.374-0.111c6.186-0.128,12.372-0.256,18.557-0.384h61.758
		c7.821-0.043,15.641-0.085,23.462-0.128c0.091,5.359,0.217,13.696,0.295,23.901c0.154,19.864,0.004,34.644,0.004,39.408
		c0.001,22.916,0.002,54.336-0.004,90.842 M560.286,565.814h-129.21v-113.07c0-12.719-1.207-30.892-2.076-44.744
		c-15.998-0.774-31.369-1.42-44.088-1.42h-61.758c-12.684,0-40.716-0.764-46.154,0.42c0.085,21.187-0.01,33.025-0.01,45.744v113.07
		H147.78v-290.64c0.08-3.193,0.161-6.385,0.241-9.578C211.214,205.11,274.407,144.625,337.6,84.139h0.019
		c16.821-16.044,17.211-16.416,17.211-16.416s5.453,5.732,15.617,16.416l182.48,173.8c2.361,2.079,4.723,4.158,7.084,6.236l0,0l0,0
		l0,0c0.092,3.666,0.184,7.332,0.276,10.998L560.286,565.814L560.286,565.814z"/>
</g>
<polygon points="431.076,452.744 431.076,407.17 390.255,406.614 "/>
</svg>
