<?xml version="1.0" encoding="utf-8"?>
<!-- Generator: Adobe Illustrator 24.1.1, SVG Export Plug-In . SVG Version: 6.00 Build 0)  -->
<svg version="1.1" id="Layer_1" xmlns="http://www.w3.org/2000/svg" xmlns:xlink="http://www.w3.org/1999/xlink" x="0px" y="0px"
	 viewBox="0 0 1280 960" style="enable-background:new 0 0 1280 960;" xml:space="preserve">
<style type="text/css">
	.st0{fill:none;}
	.st1{fill-rule:evenodd;clip-rule:evenodd;fill:#1D1D1D;}
</style>
<g id="Icons">
	<g id="Outlined" transform="translate(-918.000000, -996.000000)">
		<g id="Av" transform="translate(100.000000, 852.000000)">
			<g id="Outlined-_x2F_-AV-_x2F_-video_x5F_library" transform="translate(816.000000, 142.000000)">
				<g>
					<polygon id="Path" class="st0" points="423.426,241.27 884.872,241.27 884.872,702.716 423.426,702.716 					"/>
					<path id="_xD83D__xDD39_-Icon-Color" class="st1" d="M500.333,356.631h-23.454v269.177c0,21.15,2.304,23.454,23.454,23.454
						h269.177v-23.454H500.333V356.631z M807.965,294.723H577.241c-21.15,0-23.454,2.304-23.454,23.454v230.723
						c0,21.15,2.304,23.454,23.454,23.454h230.723c21.15,0,23.454-2.304,23.454-23.454V318.177
						C831.418,297.028,829.114,294.723,807.965,294.723z M807.965,548.901H577.241V318.177h230.723V548.901z M654.149,347.018
						V520.06l115.362-86.521L654.149,347.018z"/>
				</g>
			</g>
		</g>
	</g>
</g>
</svg>
