<?xml version="1.0" encoding="utf-8"?>
<!-- Generator: Adobe Illustrator 24.1.1, SVG Export Plug-In . SVG Version: 6.00 Build 0)  -->
<svg version="1.1" id="Layer_1" xmlns="http://www.w3.org/2000/svg" xmlns:xlink="http://www.w3.org/1999/xlink" x="0px" y="0px"
	 viewBox="0 0 32 32" enable-background="new 0 0 32 32" xml:space="preserve">
<g id="Layer_41">
	<path d="M16,30C8.268,30,2,23.732,2,16S8.268,2,16,2s14,6.268,14,14S23.732,30,16,30z M16,4C9.373,4,4,9.373,4,16s5.373,12,12,12
		s12-5.373,12-12S22.627,4,16,4z"/>
	<path d="M17.84,18.84c-0.265-0.004-0.518-0.107-0.71-0.29l-3.68-3.68c-0.228-0.228-0.332-0.552-0.28-0.87
		c0.053-0.316,0.254-0.587,0.54-0.73l7.36-3.68c0.495-0.245,1.095-0.043,1.34,0.452c0.139,0.28,0.139,0.608,0,0.888l-3.68,7.36
		c-0.143,0.286-0.414,0.487-0.73,0.54L17.84,18.84z M15.84,14.44l1.71,1.71l1.72-3.43L15.84,14.44z"/>
	<path d="M18.55,17.13l-3.68-3.68c-0.233-0.22-0.553-0.323-0.87-0.28c-0.316,0.053-0.587,0.254-0.73,0.54l-3.68,7.36
		c-0.19,0.384-0.113,0.847,0.19,1.15c0.185,0.188,0.436,0.296,0.7,0.3c0.157-0.001,0.311-0.039,0.45-0.11l7.36-3.68
		c0.286-0.143,0.487-0.414,0.54-0.73C18.882,17.682,18.778,17.358,18.55,17.13z"/>
</g>
</svg>
