<?xml version="1.0" ?><svg viewBox="0 0 32 32" xmlns="http://www.w3.org/2000/svg"><title/><g data-name="Layer 41" id="Layer_41"><path d="M16,30A14,14,0,1,1,30,16,14,14,0,0,1,16,30ZM16,4A12,12,0,1,0,28,16,12,12,0,0,0,16,4Z"/><path d="M18,27A13,13,0,0,1,5,14,9.71,9.71,0,0,1,8.31,6.63C5.35,9,3,11.9,3,16A13,13,0,0,0,16,29c4.1,0,8.91-2.94,10.13-6.44C24.34,24.81,21.08,27,18,27Z"/><path d="M17.84,18.84a1.05,1.05,0,0,1-.71-.29l-3.68-3.68a1,1,0,0,1-.28-.87,1,1,0,0,1,.54-.73l7.36-3.68a1,1,0,0,1,1.34,1.34l-3.68,7.36a1,1,0,0,1-.73.54Zm-2-4.4,1.71,1.71,1.72-3.43Z"/><path d="M18.55,17.13l-3.68-3.68a1.06,1.06,0,0,0-.87-.28,1,1,0,0,0-.73.54L9.59,21.07a1,1,0,0,0,.19,1.15,1,1,0,0,0,.7.3,1,1,0,0,0,.45-.11l7.36-3.68a1,1,0,0,0,.54-.73A1,1,0,0,0,18.55,17.13Z"/></g></svg>