<svg viewBox="0 0 64 64" xml:space="preserve" xmlns="http://www.w3.org/2000/svg" enable-background="new 0 0 64 64"><path d="M-2.3-182.9c-10.7 0-19.5-8.7-19.5-19.5 0-10.7 8.7-19.5 19.5-19.5s19.5 8.7 19.5 19.5c-.1 10.8-8.8 19.5-19.5 19.5zm0-36.1c-9.2 0-16.7 7.5-16.7 16.7s7.5 16.7 16.7 16.7 16.7-7.5 16.7-16.7c-.1-9.2-7.6-16.7-16.7-16.7z" transform="translate(30 230)" fill="#000000" class="fill-134563"></path><path d="m23.7-174.2-13.6-13.5 2.2-2.2 13.5 13.6-2.1 2.1" transform="translate(30 230)" fill="#000000" class="fill-134563"></path></svg>