<?xml version="1.0" encoding="utf-8"?>
<!-- Generator: Adobe Illustrator 24.1.1, SVG Export Plug-In . SVG Version: 6.00 Build 0)  -->
<svg version="1.1" id="Layer_1" xmlns="http://www.w3.org/2000/svg" xmlns:xlink="http://www.w3.org/1999/xlink" x="0px" y="0px"
	 viewBox="0 0 700 700" enable-background="new 0 0 700 700" xml:space="preserve">
<path stroke="#FFFFFF" stroke-miterlimit="10" d="M615.279,302.555C596.912,270.744,510.731,277.31,489,271
	c-4.692-1.363,18.834-17.663,23-21c39.566-31.692,133.114-77.039,121.053-125.779C607.539,21.119,474.119,53.22,331,89
	C159,132-57,266,118.355,344.762C148.761,358.419,199,350,225,350c4.86,0-20.697,26.161-25,29
	C147.447,413.674,77.283,483.573,90.189,535.723C114.046,632.13,240.661,587.99,390,524
	C539.339,460.01,664.939,388.563,615.279,302.555z"/>
<polygon fill="#FFFFFF" stroke="#000000" stroke-miterlimit="10" points="274.638,245.25 273.359,447.75 418.641,347.414 "/>
</svg>
