<?xml version="1.0" encoding="utf-8"?>
<!-- Generator: Adobe Illustrator 24.1.1, SVG Export Plug-In . SVG Version: 6.00 Build 0)  -->
<svg version="1.1" id="Layer_1" xmlns="http://www.w3.org/2000/svg" xmlns:xlink="http://www.w3.org/1999/xlink" x="0px" y="0px"
	 viewBox="0 0 700 700" enable-background="new 0 0 700 700" xml:space="preserve">
<path fill="none" stroke="#000000" stroke-width="30" stroke-miterlimit="10" d="M575.279,292.555
	C556.912,260.744,484.731,285.31,463,279c-4.692-1.363,11.542-11.415,15.707-14.751c39.566-31.692,126.407-101.288,114.346-150.027
	c-25.514-103.102-140.5-52.79-282.63,8.11C168.293,183.232,52.841,231.66,78.355,334.762c6.953,28.098,104.746,21.35,123.998,29.431
	c4.482,1.881-5.945,10.129-10.248,12.968c-52.553,34.674-154.822,96.412-141.917,148.562c23.857,96.407,146.72,24.903,296.06-39.086
	C495.587,422.647,624.939,378.563,575.279,292.555z"/>
<polygon points="264.911,212.48 263.56,426.293 416.959,320.351 "/>
</svg>
