<?xml version="1.0" encoding="utf-8"?>
<!-- Generator: Adobe Illustrator 24.1.1, SVG Export Plug-In . SVG Version: 6.00 Build 0)  -->
<svg version="1.1" id="Layer_1" xmlns="http://www.w3.org/2000/svg" xmlns:xlink="http://www.w3.org/1999/xlink" x="0px" y="0px"
	 viewBox="0 0 24 24" enable-background="new 0 0 24 24" xml:space="preserve">
<path d="M20,2H8C6.9,2,7,1.9,7,3v12c0,1.1-0.1,1,1,1h12c1.1,0,1,0.1,1-1V3C21,1.9,21.1,2,20,2z"/>
<rect x="8" y="3" width="12" height="12"/>
<path fill="none" d="M0,0h24v24H0V0z"/>
<path d="M4,5H3v14c0,1.1-0.1,1,1,1h14v-1H4V5z"/>
<polygon fill="#FFFFFF" stroke="#000000" stroke-miterlimit="10" points="11.479,4.5 11.479,13.5 17.479,9 "/>
</svg>
