<svg id="americanexpress-light-large" xmlns="http://www.w3.org/2000/svg" width="48.001" height="32" viewBox="0 0 48.001 32">
  <rect id="card_bg" width="48" height="32" rx="4" transform="translate(0.001)" fill="#dfe3e8"/>
  <g id="amex" transform="translate(0 7.2)">
    <path id="Path" d="M1.27.88,1.81,2.2H0L.55.88.91,0l.36.88Z" transform="translate(2.381 2.46)" fill="#296db6"/>
    <path id="Shape" d="M30.961,8.2a3.979,3.979,0,0,1-2.32-.741V8.2h-4.81l-1.16-1.46V8.2H4.331L3.871,6.98H2.751L2.28,8.2H0V6.98H1.521L2,5.8H4.63l.481,1.14h1.54L4.231,1.3H2.451L0,6.978V3.8L1.6,0h3.26L5.8,2.1V0h4l.6,1.8L11,.04h17.64V.86A3.9,3.9,0,0,1,31.029.038l.112,0h5.34l1,2.1V.04h3.14l1.07,1.66V.04h3.59V8.2H41.9l-1-1.579V8.2H36l-.49-1.219h-1.12L33.931,8.2h-2.97Zm7.6-6.9V6.98H39.9V3.18l.36.62,2.091,3.14h1.6L44,1.26H42.6V4.94l-.38-.64-2-3Zm-4.469,0L31.671,6.98h1.46L33.61,5.8h2.67l.48,1.14H38.3L35.891,1.3Zm-3.271-.006A2.551,2.551,0,0,0,28.281,4.08v.08a2.5,2.5,0,0,0,2.483,2.784c.046,0,.092,0,.137,0h.08l.55-1.2H31.1l-.07,0A1.4,1.4,0,0,1,29.64,4.16V4.08a1.4,1.4,0,0,1,1.39-1.561l.07,0h1.49V1.3H31C30.94,1.3,30.88,1.293,30.819,1.293ZM26.111,1.3V6.94h1.37V1.3ZM21.791,4.94h.62l1.68,2h1.74l-1.88-2.08a1.742,1.742,0,0,0,1.54-1.78,1.771,1.771,0,0,0-2-1.78H20.4V6.94h1.39v-2Zm-9.2-2.554h0V6.94h1.32V1.3H11.7L10.581,4.56l-.18.62-.18-.62L9.12,1.3H6.911V6.94H8.22V2.38l.28.86,1.281,3.7H11l1.33-3.7ZM15,1.3V6.9h4.5V5.7H16.33v-1h3.091V3.5H16.33v-1H19.5V1.3ZM35.9,4.66H34.122l.519-1.32L35,2.46l.34.841.2.484-.2-.484L35,2.46l.36.88.206.5h0l.318.772h0l-.59-1.278.61,1.319ZM23.46,3.747a.619.619,0,0,1-.089-.007h-1.58V2.5h1.58a.628.628,0,0,1,.7.617v.02a.61.61,0,0,1-.61.61Zm.4-.194a.609.609,0,0,1-.4.154A.608.608,0,0,0,23.865,3.553Z" fill="#296db6"/>
    <path id="Shape-2" data-name="Shape" d="M20.5,8.161H17.07V6.1a4.927,4.927,0,0,1-1.456.22h-.6V8.16H9.96L9.12,6.94,8.26,8.16H0V0H8.28l.84,1.2L9.98,0H39.12V1.26H36.19A1.74,1.74,0,0,0,34.25,3.04,1.569,1.569,0,0,0,36.01,4.7H37.3a.511.511,0,0,1,.525.217A.509.509,0,0,1,37.3,5.7H34.41V6.9h2.87c.054,0,.109.007.163.007A1.777,1.777,0,0,0,39.1,5.76v1.9a3.348,3.348,0,0,1-1.763.5H21.66L20.5,6.7V8.16ZM9.12,5.1h0L10.48,6.9l1.721.04L9.92,4.1l2.24-2.84H10.5L9.12,3.04,7.75,1.28H6.05L8.32,4.1,6.12,6.9H7.71L9.119,5.1Zm20.08.6V6.9H32.12c.046,0,.093.006.139.006A1.75,1.75,0,0,0,34.01,5.1a1.549,1.549,0,0,0-1.76-1.62H30.94a.51.51,0,1,1,0-1h2.43l.54-1.2H30.98A1.74,1.74,0,0,0,29.04,3.04,1.569,1.569,0,0,0,30.8,4.7h1.32a.51.51,0,1,1,0,1Zm-9.63-.8h.62l1.68,2h1.74L21.72,4.82A1.793,1.793,0,0,0,21.3,1.26H18.24V6.9H19.57v-2ZM12.44,1.26V6.9h1.34V5.04h1.73a1.85,1.85,0,0,0,2.04-1.9,1.81,1.81,0,0,0-2-1.88Zm11.49,0V6.84h4.55V5.64H25.31v-1H28.4V3.46H25.31v-1h3.14l.03-1.2ZM1.3,1.26V6.84H5.83V5.64H2.66v-1H5.77V3.46H2.66v-1H5.83V1.26ZM39.068,4.4A1.619,1.619,0,0,0,37.43,3.46H36.12a.51.51,0,1,1,0-1H38.58l.49-1.16V4.4ZM15.43,3.84H13.81V2.46h1.62a.69.69,0,0,1,0,1.381Zm5.841-.134A.612.612,0,0,1,21.18,3.7H19.6V2.46h1.58a.63.63,0,0,1,.079,0,.62.62,0,0,1,.622.625V3.1a.61.61,0,0,1-.61.61Z" transform="translate(8.881 10.7)" fill="#296db6"/>
  </g>
</svg>
