<?xml version="1.0" encoding="utf-8"?>
<!-- Generator: Adobe Illustrator 24.1.1, SVG Export Plug-In . SVG Version: 6.00 Build 0)  -->
<svg version="1.1" id="Layer_1" xmlns="http://www.w3.org/2000/svg" xmlns:xlink="http://www.w3.org/1999/xlink" x="0px" y="0px"
	 viewBox="0 0 512 512" enable-background="new 0 0 512 512" xml:space="preserve">
<path d="M257,110.471c7.083,0,23.911,4.479,23.911,4.479c45.589,10.447,77.678,52.439,77.678,99.85v127.612l9.321,9.364l7.788,7.823
	H136.302l7.788-7.823l9.321-9.364V214.8c0-47.41,32.089-89.403,77.678-99.85c0,0,18.043-4.479,23.911-4.479 M256,38
	c-17.602,0-31.059,13.518-31.059,31.2v24.559c-59.015,13.523-93.53,57.601-93.53,121.041v114.4L90,370.8v10.8h332v-10.8
	l-41.411-41.6V214.8c0-63.44-34.516-107.518-93.53-121.041V69.2C287.059,51.518,273.602,38,256,38L256,38z M297.411,412.4h-82.823
	c0,22.881,18.633,41.6,41.412,41.6S297.411,435.281,297.411,412.4z"/>
</svg>
