<svg xmlns="http://www.w3.org/2000/svg" viewBox="0 0 64 64"><path fill="#222" d="M32 53.372a8.584 8.584 0 0 1-4.195-1.087c-13.68-7.669-21.213-17.116-21.213-26.6 0-8.448 5.91-15.065 13.454-15.065A16.283 16.283 0 0 1 32 15.862a16.283 16.283 0 0 1 11.954-5.242c7.544 0 13.454 6.617 13.454 15.065 0 9.484-7.533 18.931-21.213 26.6A8.587 8.587 0 0 1 32 53.372ZM20.046 13.62c-5.96 0-10.454 5.187-10.454 12.065 0 8.351 6.989 16.868 19.679 23.982a5.613 5.613 0 0 0 5.458 0c12.69-7.114 19.679-15.631 19.679-23.982 0-6.878-4.494-12.065-10.454-12.065a13.339 13.339 0 0 0-10.7 5.433 1.457 1.457 0 0 1-1.254.669 1.5 1.5 0 0 1-1.246-.669 13.339 13.339 0 0 0-10.708-5.433Z"/></svg>