<?xml version="1.0" encoding="utf-8"?>
<!-- Generator: Adobe Illustrator 24.1.1, SVG Export Plug-In . SVG Version: 6.00 Build 0)  -->
<svg version="1.1" id="Layer_1" xmlns="http://www.w3.org/2000/svg" xmlns:xlink="http://www.w3.org/1999/xlink" x="0px" y="0px"
	 viewBox="0 0 20 20" style="enable-background:new 0 0 20 20;" xml:space="preserve">
<style type="text/css">
	.st0{fill-rule:evenodd;clip-rule:evenodd;}
	.st1{fill:#FFFFFF;stroke:#000000;stroke-miterlimit:10;}
	.st2{fill:none;}
	.st3{fill-rule:evenodd;clip-rule:evenodd;fill:#1D1D1D;}
</style>
<path class="st0" d="M15.567,3.585h-8.35c-0.765,0-0.849,0.083-0.849,0.849v8.35c0,0.765,0.083,0.849,0.849,0.849h8.35
	c0.765,0,0.849-0.083,0.849-0.849v-8.35C16.415,3.668,16.332,3.585,15.567,3.585z"/>
<rect x="7.217" y="4.433" class="st0" width="8.35" height="8.35"/>
<polygon class="st1" points="10,5.477 10,11.74 14.175,8.608 "/>
<g id="Icons">
	<g id="Outlined" transform="translate(-918.000000, -996.000000)">
		<g id="Av" transform="translate(100.000000, 852.000000)">
			<g id="Outlined-_x2F_-AV-_x2F_-video_x5F_library" transform="translate(816.000000, 142.000000)">
				<g>
					<polygon id="Path" class="st2" points="3.65,3.65 20.35,3.65 20.35,20.35 3.65,20.35 					"/>
					<path id="_xD83D__xDD39_-Icon-Color" class="st3" d="M6.433,7.825H5.585v9.742c0,0.765,0.083,0.849,0.849,0.849h9.741v-0.849
						H6.433V7.825z"/>
				</g>
			</g>
		</g>
	</g>
</g>
</svg>
