<svg xmlns="http://www.w3.org/2000/svg" viewBox="0 0 64 64"><g fill="#134563"><path d="M56 32.4c0-3.2-2.5-4.9-6-4.9H39.9c.7-2.7 1.1-5.3 1.1-7.5 0-8.7-2.4-10.5-4.5-10.5-1.4 0-2.4.1-3.8 1-.4.2-.6.6-.7 1l-1.5 8.1c-1.6 4.3-5.7 8-9 10.5v21.4c1.1 0 2.5.6 3.8 1.3 1.6.8 3.3 1.6 5.2 1.6h14.3c3 0 5.2-2.4 5.2-4.5 0-.4 0-.8-.1-1.1 1.9-.7 3.1-2.3 3.1-4.1 0-.9-.2-1.7-.5-2.3 1.1-.8 2.3-2.1 2.3-3.7 0-.8-.4-1.8-1-2.5 1.3-1 2.2-2.4 2.2-3.8zm-3.1 0c0 1.9-2 2.1-2.3 3-.3 1 1.2 1.4 1.2 3.2 0 1.9-2.3 1.9-2.6 2.8-.4 1.1.7 1.5.7 3.3v.3c-.3 1.5-2.6 1.6-3 2.2-.4.7.1 1.1.1 2.7 0 .9-1 1.5-2.2 1.5H30.5c-1.1 0-2.5-.6-3.8-1.3-1.2-.6-2.4-1.2-3.7-1.5V32.7c3.7-2.8 8.5-7.1 10.4-12.3 0-.1 0-.2.1-.2l1.4-7.5c.5-.2.9-.2 1.7-.2.3 0 1.5 1.8 1.5 7.5 0 2.2-.4 4.7-1.2 7.5h-.4c-.8 0-1.5.7-1.5 1.5s.7 1.5 1.5 1.5H50c1.5 0 2.9.7 2.9 1.9z"/><path d="M20 54.5h-9c-1.7 0-3-1.3-3-3v-21c0-1.7 1.3-3 3-3h9c1.7 0 3 1.3 3 3v21c0 1.7-1.3 3-3 3zm-9-24v21h9v-21h-9zm-3-21"/></g></svg>