<?xml version="1.0" encoding="UTF-8"?>
<svg width="700pt" height="700pt" version="1.1" viewBox="0 0 700 700" xmlns="http://www.w3.org/2000/svg">
 <path d="m559.66 220.19-40.543-10.305 22.398-35.84c3.8594-6.4062 5.4688-13.918 4.5742-21.34-0.89062-7.4258-4.2344-14.34-9.5-19.652l-39.648-38.75c-5.3398-5.2305-12.266-8.5352-19.691-9.3867-7.4219-0.85156-14.918 0.79688-21.301 4.6836l-35.84 22.398-10.305-40.543c-1.5391-7.4922-5.6055-14.23-11.52-19.082-5.9141-4.8516-13.312-7.5273-20.961-7.5742h-54.656c-7.4961-0.007812-14.773 2.5039-20.668 7.1367-5.8906 4.6328-10.051 11.113-11.812 18.398l-10.305 41.664-35.84-22.398c-6.4062-3.8594-13.918-5.4688-21.34-4.5781-7.4258 0.89453-14.34 4.2383-19.652 9.5039l-38.75 38.527c-5.2305 5.3398-8.5352 12.266-9.3867 19.691-0.85156 7.4219 0.79688 14.918 4.6836 21.301l22.398 35.84-40.543 10.305c-7.4922 1.5391-14.23 5.6055-19.082 11.52-4.8516 5.9141-7.5273 13.312-7.5742 20.961v54.656c-0.007812 7.4961 2.5039 14.773 7.1367 20.668 4.6328 5.8906 11.113 10.051 18.398 11.812l41.664 10.305-22.398 35.84c-3.8594 6.4062-5.4688 13.918-4.5781 21.34 0.89453 7.4258 4.2383 14.34 9.5039 19.652l38.754 38.754v-0.003907c5.3203 5.1797 12.207 8.4492 19.582 9.3008 7.375 0.85156 14.824-0.76562 21.184-4.5977l35.84-22.398 10.305 40.543c1.5391 7.4922 5.6055 14.23 11.52 19.082 5.9141 4.8516 13.312 7.5273 20.961 7.5742h54.656c7.4961 0.007812 14.773-2.5039 20.668-7.1367 5.8906-4.6328 10.051-11.113 11.812-18.398l10.305-40.543 35.84 22.398c6.3945 3.8984 13.914 5.5273 21.348 4.6367 7.4375-0.89453 14.355-4.2617 19.645-9.5625l38.754-38.754h-0.003907c5.4453-5.3984 8.8828-12.496 9.7383-20.113 0.85547-7.6211-0.92188-15.305-5.0352-21.773l-22.398-35.84 40.543-10.305c7.4922-1.5391 14.23-5.6055 19.082-11.52 4.8516-5.9141 7.5273-13.312 7.5742-20.961v-54.656c0.007812-7.4961-2.5039-14.773-7.1367-20.668-4.6328-5.8906-11.113-10.051-18.398-11.812zm3.1367 87.137c0.027344 5.1328-3.5117 9.5977-8.5117 10.75l-69.891 17.922 37.184 61.824h0.003907c2.4844 4.5273 1.7617 10.141-1.793 13.887l-38.527 38.527c-3.7344 3.625-9.4414 4.2695-13.891 1.5703l-61.375-37.41-17.695 69.887v0.003906c-1.1523 5-5.6172 8.5391-10.754 8.5117h-54.879c-5.1328 0.027344-9.5977-3.5117-10.75-8.5117l-17.922-69.891-61.602 36.961c-4.375 2.6641-10.004 2.0195-13.664-1.5664l-38.527-38.527c-3.5547-3.75-4.2773-9.3633-1.793-13.891l37.188-61.375-69.891-17.922c-5-1.1523-8.5391-5.6172-8.5117-10.75v-54.656c-0.027344-5.1328 3.5117-9.5977 8.5117-10.75l69.891-17.922-37.188-61.375c-2.4844-4.5273-1.7617-10.141 1.793-13.891l38.527-38.527c3.7344-3.6211 9.4414-4.2656 13.891-1.5664l61.375 36.961 17.695-69.887v-0.003906c1.1719-5.0859 5.7578-8.6445 10.977-8.5117h54.656c5.1328-0.027344 9.5977 3.5117 10.75 8.5117l17.922 69.891 61.824-36.961c4.375-2.6641 10.004-2.0195 13.664 1.5664l38.527 38.527c3.5547 3.75 4.2812 9.3633 1.793 13.891l-37.41 61.375 69.887 17.473h0.003906c5 1.1523 8.5391 5.6172 8.5117 10.75zm-212.8-128.13c-26.734 0-52.371 10.621-71.277 29.523-18.902 18.906-29.523 44.543-29.523 71.277s10.621 52.371 29.523 71.277c18.906 18.902 44.543 29.523 71.277 29.523s52.371-10.621 71.277-29.523c18.902-18.906 29.523-44.543 29.523-71.277-0.058593-26.715-10.699-52.32-29.59-71.211-18.891-18.891-44.496-29.531-71.211-29.59zm0 179.2c-20.793 0-40.734-8.2578-55.438-22.961s-22.961-34.645-22.961-55.438 8.2578-40.734 22.961-55.438 34.645-22.961 55.438-22.961 40.734 8.2578 55.438 22.961 22.961 34.645 22.961 55.438-8.2578 40.734-22.961 55.438-34.645 22.961-55.438 22.961z"/>
</svg>
