<?xml version="1.0" encoding="UTF-8"?>
<svg width="700pt" height="700pt" version="1.1" viewBox="0 0 700 700" xmlns="http://www.w3.org/2000/svg" xmlns:xlink="http://www.w3.org/1999/xlink">
 <defs>
  <symbol id="s" overflow="visible">
   <path d="m8.2031-0.48438c-0.42969 0.21875-0.87109 0.38281-1.3281 0.48438-0.46094 0.11328-0.9375 0.17188-1.4375 0.17188-1.4805 0-2.6562-0.41016-3.5312-1.2344-0.86719-0.83203-1.2969-1.9609-1.2969-3.3906 0-1.4258 0.42969-2.5508 1.2969-3.375 0.875-0.83203 2.0508-1.25 3.5312-1.25 0.5 0 0.97656 0.058594 1.4375 0.17188 0.45703 0.10547 0.89844 0.26562 1.3281 0.48438v1.8438c-0.42969-0.28125-0.85156-0.48828-1.2656-0.625-0.41797-0.13281-0.85547-0.20312-1.3125-0.20312-0.82422 0-1.4688 0.26172-1.9375 0.78125-0.46875 0.52344-0.70312 1.2461-0.70312 2.1719 0 0.91797 0.23438 1.6406 0.70312 2.1719 0.46875 0.52344 1.1133 0.78125 1.9375 0.78125 0.45703 0 0.89453-0.066406 1.3125-0.20312 0.41406-0.13281 0.83594-0.34375 1.2656-0.625z"/>
  </symbol>
  <symbol id="c" overflow="visible">
   <path d="m6-4.875c-0.1875-0.082031-0.375-0.14453-0.5625-0.1875-0.1875-0.039062-0.375-0.0625-0.5625-0.0625-0.54297 0-0.96484 0.17969-1.2656 0.53125-0.29297 0.35547-0.4375 0.85938-0.4375 1.5156v3.0781h-2.1406v-6.6875h2.1406v1.0938c0.26953-0.4375 0.58203-0.75391 0.9375-0.95312 0.35156-0.20703 0.78125-0.3125 1.2812-0.3125 0.070313 0 0.14844 0.007813 0.23438 0.015625 0.082031 0.011719 0.20312 0.027344 0.35938 0.046875z"/>
  </symbol>
  <symbol id="a" overflow="visible">
   <path d="m7.7031-3.3594v0.60938h-5c0.050781 0.5 0.23438 0.875 0.54688 1.125s0.74219 0.375 1.2969 0.375c0.45703 0 0.92188-0.066406 1.3906-0.20312 0.46875-0.13281 0.95312-0.33594 1.4531-0.60938v1.6562c-0.51172 0.1875-1.0234 0.32812-1.5312 0.42188-0.5 0.10156-1 0.15625-1.5 0.15625-1.2188 0-2.1641-0.30469-2.8281-0.92188-0.66797-0.61328-1-1.4766-1-2.5938 0-1.082 0.32812-1.9375 0.98438-2.5625 0.65625-0.63281 1.5625-0.95312 2.7188-0.95312 1.0508 0 1.8906 0.32031 2.5156 0.95312 0.63281 0.63672 0.95312 1.4844 0.95312 2.5469zm-2.1875-0.71875c0-0.40625-0.12109-0.73438-0.35938-0.98438-0.24219-0.25-0.55469-0.375-0.9375-0.375-0.40625 0-0.74219 0.12109-1 0.35938-0.26172 0.23047-0.42188 0.5625-0.48438 1z"/>
  </symbol>
  <symbol id="e" overflow="visible">
   <path d="m4.0312-3.0156c-0.44922 0-0.78906 0.078125-1.0156 0.23438-0.21875 0.14844-0.32812 0.37109-0.32812 0.67188 0 0.27344 0.085938 0.48438 0.26562 0.64062 0.17578 0.14844 0.42578 0.21875 0.75 0.21875 0.40625 0 0.74219-0.14062 1.0156-0.42188 0.28125-0.28906 0.42188-0.65625 0.42188-1.0938v-0.25zm3.2656-0.79688v3.8125h-2.1562v-0.98438c-0.29297 0.40625-0.62109 0.70312-0.98438 0.89062-0.35547 0.17578-0.78906 0.26562-1.2969 0.26562-0.6875 0-1.25-0.20312-1.6875-0.60938-0.42969-0.40625-0.64062-0.92578-0.64062-1.5625 0-0.78906 0.26562-1.3672 0.79688-1.7344 0.53906-0.36328 1.3906-0.54688 2.5469-0.54688h1.2656v-0.17188c0-0.33203-0.13672-0.57812-0.40625-0.73438-0.26172-0.16406-0.67969-0.25-1.25-0.25-0.46094 0-0.88672 0.046875-1.2812 0.14062-0.38672 0.09375-0.75 0.23438-1.0938 0.42188v-1.6406c0.45703-0.10156 0.91406-0.1875 1.375-0.25 0.46875-0.0625 0.92969-0.09375 1.3906-0.09375 1.207 0 2.0781 0.24219 2.6094 0.71875 0.53906 0.48047 0.8125 1.2578 0.8125 2.3281z"/>
  </symbol>
  <symbol id="b" overflow="visible">
   <path d="m3.3594-8.5938v1.9062h2.2031v1.5312h-2.2031v2.8281c0 0.3125 0.0625 0.52734 0.1875 0.64062 0.125 0.10547 0.36719 0.15625 0.73438 0.15625h1.0938v1.5312h-1.8281c-0.84375 0-1.4453-0.17578-1.7969-0.53125-0.35547-0.35156-0.53125-0.95312-0.53125-1.7969v-2.8281h-1.0625v-1.5312h1.0625v-1.9062z"/>
  </symbol>
  <symbol id="n" overflow="visible">
   <path d="m5.5781-5.7188v-3.5781h2.1562v9.2969h-2.1562v-0.96875c-0.29297 0.39844-0.61719 0.6875-0.96875 0.875-0.35547 0.17578-0.76562 0.26562-1.2344 0.26562-0.82422 0-1.5-0.32812-2.0312-0.98438s-0.79688-1.5-0.79688-2.5312 0.26562-1.875 0.79688-2.5312 1.207-0.98438 2.0312-0.98438c0.45703 0 0.86328 0.09375 1.2188 0.28125 0.36328 0.1875 0.69141 0.47656 0.98438 0.85938zm-1.4062 4.3438c0.45703 0 0.80469-0.16406 1.0469-0.5 0.23828-0.34375 0.35938-0.83203 0.35938-1.4688 0-0.63281-0.12109-1.1172-0.35938-1.4531-0.24219-0.33203-0.58984-0.5-1.0469-0.5-0.46094 0-0.80859 0.16797-1.0469 0.5-0.24219 0.33594-0.35938 0.82031-0.35938 1.4531 0 0.63672 0.11719 1.125 0.35938 1.4688 0.23828 0.33594 0.58594 0.5 1.0469 0.5z"/>
  </symbol>
  <symbol id="m" overflow="visible">
   <path d="m4.5938-1.375c0.45703 0 0.80469-0.16406 1.0469-0.5 0.23828-0.34375 0.35938-0.83203 0.35938-1.4688 0-0.63281-0.12109-1.1172-0.35938-1.4531-0.24219-0.33203-0.58984-0.5-1.0469-0.5-0.46094 0-0.8125 0.16797-1.0625 0.5-0.24219 0.33594-0.35938 0.82031-0.35938 1.4531 0 0.63672 0.11719 1.125 0.35938 1.4688 0.25 0.33594 0.60156 0.5 1.0625 0.5zm-1.4219-4.3438c0.28906-0.38281 0.61328-0.67188 0.96875-0.85938 0.36328-0.1875 0.77344-0.28125 1.2344-0.28125 0.83203 0 1.5078 0.32812 2.0312 0.98438 0.53125 0.65625 0.79688 1.5 0.79688 2.5312s-0.26562 1.875-0.79688 2.5312c-0.52344 0.65625-1.1992 0.98438-2.0312 0.98438-0.46094 0-0.87109-0.089844-1.2344-0.26562-0.35547-0.1875-0.67969-0.47656-0.96875-0.875v0.96875h-2.1406v-9.2969h2.1406z"/>
  </symbol>
  <symbol id="l" overflow="visible">
   <path d="m0.15625-6.6875h2.125l1.8125 4.5312 1.5156-4.5312h2.1406l-2.8125 7.3281c-0.28125 0.73828-0.60938 1.2539-0.98438 1.5469-0.375 0.30078-0.87109 0.45312-1.4844 0.45312h-1.25v-1.4062h0.67188c0.36328 0 0.62891-0.058594 0.79688-0.17188 0.16406-0.11719 0.29688-0.32422 0.39062-0.625l0.046875-0.1875z"/>
  </symbol>
  <symbol id="k" overflow="visible">
   <path d="m1.125-8.9219h2.2969v3.4062h3.3906v-3.4062h2.2969v8.9219h-2.2969v-3.7812h-3.3906v3.7812h-2.2969z"/>
  </symbol>
  <symbol id="j" overflow="visible">
   <path d="m0.95312-2.6094v-4.0781h2.1562v0.67188c0 0.35547-0.007813 0.80859-0.015625 1.3594v1.0938c0 0.54297 0.007812 0.93359 0.03125 1.1719 0.03125 0.23047 0.082031 0.40234 0.15625 0.51562 0.082031 0.13672 0.19141 0.24219 0.32812 0.3125 0.14453 0.074219 0.3125 0.10938 0.5 0.10938 0.44531 0 0.79688-0.16406 1.0469-0.5 0.25781-0.34375 0.39062-0.82031 0.39062-1.4375v-3.2969h2.1406v6.6875h-2.1406v-0.96875c-0.32422 0.39844-0.66797 0.6875-1.0312 0.875-0.35547 0.17578-0.75 0.26562-1.1875 0.26562-0.77344 0-1.3594-0.23438-1.7656-0.70312-0.40625-0.47656-0.60938-1.1719-0.60938-2.0781z"/>
  </symbol>
  <symbol id="i" overflow="visible">
   <path d="m7.2344-5.5781c0.26953-0.41406 0.58594-0.73438 0.95312-0.95312 0.375-0.21875 0.78516-0.32812 1.2344-0.32812 0.76953 0 1.3516 0.24219 1.75 0.71875 0.40625 0.46875 0.60938 1.1562 0.60938 2.0625v4.0781h-2.1562v-3.4844c0.007812-0.050781 0.015625-0.10156 0.015625-0.15625v-0.25c0-0.46875-0.074219-0.80469-0.21875-1.0156-0.13672-0.21875-0.35938-0.32812-0.67188-0.32812-0.40625 0-0.71875 0.16797-0.9375 0.5-0.21875 0.33594-0.33594 0.82031-0.34375 1.4531v3.2812h-2.1406v-3.4844c0-0.73828-0.070313-1.2109-0.20312-1.4219-0.125-0.21875-0.35156-0.32812-0.67188-0.32812-0.41797 0-0.73438 0.16797-0.95312 0.5-0.21875 0.33594-0.32812 0.8125-0.32812 1.4375v3.2969h-2.1562v-6.6875h2.1562v0.96875c0.25781-0.375 0.55469-0.65625 0.89062-0.84375 0.34375-0.19531 0.72266-0.29688 1.1406-0.29688 0.45703 0 0.86328 0.11719 1.2188 0.34375 0.35156 0.21875 0.625 0.53125 0.8125 0.9375z"/>
  </symbol>
  <symbol id="h" overflow="visible">
   <path d="m7.75-4.0781v4.0781h-2.1406v-3.125c0-0.57031-0.015625-0.96875-0.046875-1.1875-0.023438-0.21875-0.0625-0.37891-0.125-0.48438-0.085938-0.13281-0.19922-0.23828-0.34375-0.3125-0.14844-0.082031-0.3125-0.125-0.5-0.125-0.4375 0-0.78906 0.17188-1.0469 0.51562-0.25 0.34375-0.375 0.82031-0.375 1.4219v3.2969h-2.1406v-6.6875h2.1406v0.96875c0.32031-0.38281 0.66016-0.67188 1.0156-0.85938 0.36328-0.1875 0.76562-0.28125 1.2031-0.28125 0.76953 0 1.3516 0.24219 1.75 0.71875 0.40625 0.46875 0.60938 1.1562 0.60938 2.0625z"/>
  </symbol>
  <symbol id="g" overflow="visible">
   <path d="m6.4375-6.4844v1.75c-0.29297-0.19531-0.58594-0.34375-0.875-0.4375-0.29297-0.10156-0.60156-0.15625-0.92188-0.15625-0.59375 0-1.0586 0.17969-1.3906 0.53125-0.33594 0.34375-0.5 0.82812-0.5 1.4531s0.16406 1.1172 0.5 1.4688c0.33203 0.34375 0.79688 0.51562 1.3906 0.51562 0.34375 0 0.66016-0.046875 0.95312-0.14062 0.30078-0.10156 0.58203-0.25391 0.84375-0.45312v1.75c-0.33594 0.125-0.67188 0.21875-1.0156 0.28125s-0.69531 0.09375-1.0469 0.09375c-1.2109 0-2.1523-0.30469-2.8281-0.92188-0.67969-0.625-1.0156-1.4883-1.0156-2.5938 0-1.1016 0.33594-1.9609 1.0156-2.5781 0.67578-0.625 1.6172-0.9375 2.8281-0.9375 0.35156 0 0.69531 0.03125 1.0312 0.09375 0.34375 0.0625 0.6875 0.15625 1.0312 0.28125z"/>
  </symbol>
  <symbol id="f" overflow="visible">
   <path d="m7.75-4.0781v4.0781h-2.1406v-3.1094c0-0.58203-0.015625-0.98438-0.046875-1.2031-0.023438-0.21875-0.0625-0.37891-0.125-0.48438-0.085938-0.13281-0.19922-0.23828-0.34375-0.3125-0.14844-0.082031-0.3125-0.125-0.5-0.125-0.4375 0-0.78906 0.17188-1.0469 0.51562-0.25 0.34375-0.375 0.82031-0.375 1.4219v3.2969h-2.1406v-9.2969h2.1406v3.5781c0.32031-0.38281 0.66016-0.67188 1.0156-0.85938 0.36328-0.1875 0.76562-0.28125 1.2031-0.28125 0.76953 0 1.3516 0.24219 1.75 0.71875 0.40625 0.46875 0.60938 1.1562 0.60938 2.0625z"/>
  </symbol>
  <symbol id="r" overflow="visible">
   <path d="m5.4375-9.2969v1.4062h-1.1875c-0.30469 0-0.51562 0.058594-0.64062 0.17188-0.11719 0.10547-0.17188 0.29297-0.17188 0.5625v0.46875h1.8281v1.5312h-1.8281v5.1562h-2.1406v-5.1562h-1.0625v-1.5312h1.0625v-0.46875c0-0.72656 0.20312-1.2656 0.60938-1.6094 0.40625-0.35156 1.0352-0.53125 1.8906-0.53125z"/>
  </symbol>
  <symbol id="d" overflow="visible">
   <path d="m4.2188-5.3281c-0.48047 0-0.84375 0.17188-1.0938 0.51562s-0.375 0.83594-0.375 1.4688c0 0.64844 0.125 1.1406 0.375 1.4844 0.25 0.33594 0.61328 0.5 1.0938 0.5 0.45703 0 0.8125-0.16406 1.0625-0.5 0.25-0.34375 0.375-0.83594 0.375-1.4844 0-0.63281-0.125-1.125-0.375-1.4688s-0.60547-0.51562-1.0625-0.51562zm0-1.5312c1.1445 0 2.0391 0.3125 2.6875 0.9375 0.64453 0.625 0.96875 1.4844 0.96875 2.5781 0 1.1055-0.32422 1.9688-0.96875 2.5938-0.64844 0.61719-1.543 0.92188-2.6875 0.92188-1.1562 0-2.0625-0.30469-2.7188-0.92188-0.64844-0.625-0.96875-1.4883-0.96875-2.5938 0-1.0938 0.32031-1.9531 0.96875-2.5781 0.65625-0.625 1.5625-0.9375 2.7188-0.9375z"/>
  </symbol>
  <symbol id="q" overflow="visible">
   <path d="m1.125-8.9219h2.5625l3.25 6.125v-6.125h2.1719v8.9219h-2.5625l-3.25-6.125v6.125h-2.1719z"/>
  </symbol>
  <symbol id="p" overflow="visible">
   <path d="m1.125-8.9219h3.8125c1.1328 0 2.0039 0.25781 2.6094 0.76562 0.61328 0.5 0.92188 1.2148 0.92188 2.1406 0 0.9375-0.30859 1.6641-0.92188 2.1719-0.60547 0.5-1.4766 0.75-2.6094 0.75h-1.5156v3.0938h-2.2969zm2.2969 1.6719v2.4844h1.2812c0.4375 0 0.77344-0.10156 1.0156-0.3125 0.25-0.21875 0.375-0.53125 0.375-0.9375 0-0.39453-0.125-0.69531-0.375-0.90625-0.24219-0.21875-0.57812-0.32812-1.0156-0.32812z"/>
  </symbol>
  <symbol id="o" overflow="visible">
   <path d="m1.0312-6.6875h2.1406v6.5625c0 0.89453-0.21875 1.5781-0.65625 2.0469-0.42969 0.47656-1.0469 0.71875-1.8594 0.71875h-1.0625v-1.4062h0.375c0.40625 0 0.67969-0.09375 0.82812-0.28125 0.15625-0.17969 0.23438-0.53906 0.23438-1.0781zm0-2.6094h2.1406v1.75h-2.1406z"/>
  </symbol>
 </defs>
 <g>
  <path d="m94.453 244.54 254.32-244.54 256.77 244.54v315.46h-180.96v-144.28c0-97.816-149.17-97.816-149.17 0v144.28h-180.96z" fill-rule="evenodd"/>
  <use x="94.453125" y="596.679688" xlink:href="#s"/>
  <use x="103.425781" y="596.679688" xlink:href="#c"/>
  <use x="109.457031" y="596.679688" xlink:href="#a"/>
  <use x="117.75" y="596.679688" xlink:href="#e"/>
  <use x="126" y="596.679688" xlink:href="#b"/>
  <use x="131.847656" y="596.679688" xlink:href="#a"/>
  <use x="140.136719" y="596.679688" xlink:href="#n"/>
  <use x="153.148438" y="596.679688" xlink:href="#m"/>
  <use x="161.898438" y="596.679688" xlink:href="#l"/>
  <use x="174.128906" y="596.679688" xlink:href="#k"/>
  <use x="184.359375" y="596.679688" xlink:href="#j"/>
  <use x="193.066406" y="596.679688" xlink:href="#i"/>
  <use x="205.804688" y="596.679688" xlink:href="#e"/>
  <use x="214.054688" y="596.679688" xlink:href="#h"/>
  <use x="222.761719" y="596.679688" xlink:href="#b"/>
  <use x="228.605469" y="596.679688" xlink:href="#a"/>
  <use x="236.898438" y="596.679688" xlink:href="#g"/>
  <use x="244.144531" y="596.679688" xlink:href="#f"/>
  <use x="94.453125" y="608.910156" xlink:href="#r"/>
  <use x="99.773438" y="608.910156" xlink:href="#c"/>
  <use x="105.804688" y="608.910156" xlink:href="#d"/>
  <use x="114.203125" y="608.910156" xlink:href="#i"/>
  <use x="131.199219" y="608.910156" xlink:href="#b"/>
  <use x="137.046875" y="608.910156" xlink:href="#f"/>
  <use x="145.75" y="608.910156" xlink:href="#a"/>
  <use x="158.300781" y="608.910156" xlink:href="#q"/>
  <use x="168.53125" y="608.910156" xlink:href="#d"/>
  <use x="176.933594" y="608.910156" xlink:href="#j"/>
  <use x="185.636719" y="608.910156" xlink:href="#h"/>
  <use x="198.597656" y="608.910156" xlink:href="#p"/>
  <use x="207.5625" y="608.910156" xlink:href="#c"/>
  <use x="213.589844" y="608.910156" xlink:href="#d"/>
  <use x="221.992188" y="608.910156" xlink:href="#o"/>
  <use x="226.183594" y="608.910156" xlink:href="#a"/>
  <use x="234.472656" y="608.910156" xlink:href="#g"/>
  <use x="241.722656" y="608.910156" xlink:href="#b"/>
 </g>
</svg>
