<svg id="paypal-light-large" xmlns="http://www.w3.org/2000/svg" width="48" height="32" viewBox="0 0 48 32">
  <rect id="card_bg" width="48" height="32" rx="4" fill="#dfe3e8"/>
  <g id="paypal" transform="translate(15.524 6)">
    <path id="Path" d="M4.11,18.64l.35-2.2H0L2.56.18A.21.21,0,0,1,2.63.05.24.24,0,0,1,2.77,0H8.98c2.07,0,3.49.43,4.24,1.28a2.75,2.75,0,0,1,.67,1.27,4.42,4.42,0,0,1,0,1.75v.5l.35.2a2.49,2.49,0,0,1,.71.53,2.59,2.59,0,0,1,.57,1.29,5.73,5.73,0,0,1-.08,1.86,6.48,6.48,0,0,1-.77,2.11,4.3,4.3,0,0,1-1.21,1.33,5.06,5.06,0,0,1-1.63.73,7.91,7.91,0,0,1-2,.24H9.34a1.47,1.47,0,0,0-.94.34,1.42,1.42,0,0,0-.49.88v.2L7.3,18.39v.15a.15.15,0,0,1,0,.08H7.24Z" transform="translate(0.706 0.68)" fill="#253d80"/>
    <path id="Path-2" data-name="Path" d="M11.175,0l-.06.37c-.82,4.2-3.63,5.66-7.21,5.66H2.085a.89.89,0,0,0-.88.75L.275,12.7l-.27,1.68a.47.47,0,0,0,.46.54h3.24a.78.78,0,0,0,.77-.66V14.1l.61-3.87v-.21a.77.77,0,0,1,.76-.66h.53c3.13,0,5.59-1.27,6.3-5a4.24,4.24,0,0,0-.64-3.73,3.23,3.23,0,0,0-.86-.63Z" transform="translate(4.101 5.08)" fill="#189bd7"/>
    <path id="Path-3" data-name="Path" d="M9.04.291l-.38-.1L8.24.111A10.06,10.06,0,0,0,6.64,0H1.76a.72.72,0,0,0-.33.07A.76.76,0,0,0,1,.651L0,7.221v.19a.89.89,0,0,1,.88-.75H2.7C6.28,6.661,9.09,5.2,9.91,1l.06-.37A4.48,4.48,0,0,0,9.3.351Z" transform="translate(5.376 4.449)" fill="#242e65"/>
    <path id="Path-4" data-name="Path" d="M6.376,5.1a.76.76,0,0,1,.43-.58.72.72,0,0,1,.33-.07h4.88a10.06,10.06,0,0,1,1.6.11l.42.08.38.1.19.06a4.48,4.48,0,0,1,.67.28,4,4,0,0,0-.8-3.57C13.476.45,11.836,0,9.7,0H3.476A.89.89,0,0,0,2.6.75L.006,17.16a.54.54,0,0,0,.53.62h3.84l1-6.11Z" transform="translate(0)" fill="#253d80"/>
  </g>
</svg>
