<?xml version="1.0" encoding="utf-8"?>
<!-- Generator: Adobe Illustrator 24.1.1, SVG Export Plug-In . SVG Version: 6.00 Build 0)  -->
<svg version="1.1" id="Layer_1" xmlns="http://www.w3.org/2000/svg" xmlns:xlink="http://www.w3.org/1999/xlink" x="0px" y="0px"
	 viewBox="0 0 64 64" enable-background="new 0 0 64 64" xml:space="preserve">
<path fill="#222222" d="M58.89,30.68L39.15,11.52c-0.377-0.385-1.048-1.416-1.432-1.602c-0.994-0.481-0.999-0.103-0.998,1.002v11.44
	C7.6,24.64,5.54,52.68,5.54,52.98c-0.044,0.902-0.479,0.721,0.38,1c0.2,0.067,0.409,0.101,0.62,0.1c0.685,0,1.323-0.351,1.69-0.93
	C8.31,53,17.28,40.74,36.72,40v11.24c0.79,0.772,1.658,0.19,2.43-0.6l18.74-18.16C58.652,31.702,59.652,31.458,58.89,30.68z
	 M39.69,46.35v-7.41c0-1.105-0.895-2-2-2H37.6c-13.9,0-22.81,5.28-27.81,9.6c2.42-8.07,9.16-20.62,28-21.31
	c1.077-0.038,1.931-0.922,1.93-2v-7.41l14.97,15.27L39.69,46.35z"/>
</svg>
