<svg xmlns="http://www.w3.org/2000/svg" id="Layer_1" x="0" y="0" version="1.1" viewBox="0 0 29 29" xml:space="preserve"><path d="M20.953 26.489c-.327 0-.656-.079-.959-.238l-5.466-2.875-5.521 2.874a2.044 2.044 0 0 1-2.169-.157 2.044 2.044 0 0 1-.819-2.014l1.044-6.086-4.439-4.363a2.045 2.045 0 0 1-.521-2.112 2.047 2.047 0 0 1 1.663-1.4l6.11-.888 2.778-5.57c.35-.708 1.057-1.147 1.847-1.147s1.497.439 1.847 1.147l2.733 5.537 6.155.921a2.047 2.047 0 0 1 1.663 1.4 2.049 2.049 0 0 1-.521 2.112l-4.422 4.31 1.027 6.14a2.049 2.049 0 0 1-.819 2.014 2.07 2.07 0 0 1-1.211.395zM4.019 12.198l4.421 4.31c.485.474.707 1.154.593 1.822L7.99 24.417l.552.948-.466-.885 5.465-2.874a2.063 2.063 0 0 1 1.917-.001l5.466 2.875.086-.063-1.044-6.086a2.064 2.064 0 0 1 .592-1.823l4.422-4.31-.033-.103-6.11-.888a2.064 2.064 0 0 1-1.551-1.127l-2.733-5.537c-.008-.016-.017-.032-.054-.032l-2.787 5.569a2.06 2.06 0 0 1-1.549 1.127l-6.112.888-.731.818.699-.715z"/></svg>