<?xml version="1.0" encoding="utf-8"?>
<!-- Generator: Adobe Illustrator 24.1.1, SVG Export Plug-In . SVG Version: 6.00 Build 0)  -->
<svg version="1.1" id="Layer_1" xmlns="http://www.w3.org/2000/svg" xmlns:xlink="http://www.w3.org/1999/xlink" x="0px" y="0px"
	 viewBox="0 0 24 24" enable-background="new 0 0 24 24" xml:space="preserve">
<path fill="none" d="M0,0h24v24H0V0z"/>
<path d="M4,7H3v14c0,1.1-0.1,1,1,1h14v-1H4V7z"/>
<path d="M21,5c0-1.1,0.1-1-1-1H8C6.9,4,7,3.9,7,5v12c0,1.1-0.1,1,1,1h12c1.1,0,1,0.1,1-1V5z M12,14.5v-7l5,3.5L12,14.5z"/>
<path d="M8,5v12h12V5H8z M12,14.5v-7l5,3.5L12,14.5z"/>
</svg>
